<?xml version="1.0" encoding="UTF-8" standalone="no"?>
<!-- Created with Inkscape (http://www.inkscape.org/) -->

<svg
   width="28"
   height="28"
   viewBox="0 0 28 28"
   version="1.1"
   id="svg1"
   inkscape:export-filename="iconbr.svg"
   inkscape:export-xdpi="96"
   inkscape:export-ydpi="96"
   xmlns:inkscape="http://www.inkscape.org/namespaces/inkscape"
   xmlns:sodipodi="http://sodipodi.sourceforge.net/DTD/sodipodi-0.dtd"
   xmlns="http://www.w3.org/2000/svg"
   xmlns:svg="http://www.w3.org/2000/svg">
  <sodipodi:namedview
     id="namedview1"
     pagecolor="#505050"
     bordercolor="#ffffff"
     borderopacity="1"
     inkscape:showpageshadow="0"
     inkscape:pageopacity="0"
     inkscape:pagecheckerboard="1"
     inkscape:deskcolor="#d1d1d1"
     inkscape:document-units="px" />
  <defs
     id="defs1" />
  <g
     inkscape:label="Camada 1"
     inkscape:groupmode="layer"
     id="layer1">
    <circle
       style="fill:#ffffff;stroke-width:0.0447946;stroke-linecap:round;stroke-linejoin:round;stroke-miterlimit:0"
       id="path1"
       cx="14"
       cy="14"
       r="14" />
    <path
       id="circle2"
       style="fill:#ffffff;stroke-width:1.44939;stroke-linecap:round;stroke-linejoin:round;stroke-miterlimit:0"
       d="m 13.246094,9.6908529 a 8.370203,8.370203 0 0 0 -4.7949219,1.5292971 6.2326646,6.2326646 0 0 0 -0.683594,2.808594 6.2326646,6.2326646 0 0 0 0.076172,0.953125 6.2326646,6.2326646 0 0 1 5.4023439,-3.154297 6.2326646,6.2326646 0 0 1 6.158203,5.273438 6.2326646,6.2326646 0 0 0 0.828125,-3.072266 6.2326646,6.2326646 0 0 0 -0.04102,-0.638672 8.370203,8.370203 0 0 0 -6.945312,-3.6992191 z" />
    <path
       id="circle3"
       style="fill:#000080;stroke-width:0.0447946;stroke-linecap:round;stroke-linejoin:round;stroke-miterlimit:0"
       d="M 14,-5e-8 A 14,14 0 0 0 -2e-7,14 H 14 Z" />
    <path
       id="rect4"
       style="fill:#d40000;stroke-width:0.413114;stroke-linecap:round;stroke-linejoin:round;stroke-miterlimit:0"
       d="M 14.044922,-0.0546872 A 14,14 0 0 0 14,-0.050781 v 3.523438 h 9.332032 a 14,14 0 0 0 -9.28711,-3.5273442 z M 14,7 v 3.527344 H 27.621094 A 14,14 0 0 0 26.195313,7 Z M 0.044922,13.945313 a 14,14 0 0 0 0.476563,3.527344 H 27.56836 a 14,14 0 0 0 0.476562,-3.527344 z m 1.949219,7.066406 a 14,14 0 0 0 2.900391,3.527344 h 18.300781 a 14,14 0 0 0 2.90039,-3.527344 z" />
    <circle
       style="fill:#ffffff;stroke-width:0.813144;stroke-linecap:round;stroke-linejoin:round;stroke-miterlimit:0"
       id="path10"
       cx="8.1148252"
       cy="10.883803"
       r="0.85277343" />
    <circle
       style="fill:#ffffff;stroke-width:0.813144;stroke-linecap:round;stroke-linejoin:round;stroke-miterlimit:0"
       id="circle10"
       cx="10.027499"
       cy="6.1472263"
       r="0.85277343" />
    <circle
       style="fill:#ffffff;stroke-width:0.813144;stroke-linecap:round;stroke-linejoin:round;stroke-miterlimit:0"
       id="circle11"
       cx="4.4573221"
       cy="7"
       r="0.85277343" />
  </g>
</svg>
